<svg width="1440" height="163" viewBox="0 0 1440 163" fill="none" xmlns="http://www.w3.org/2000/svg">
<g clip-path="url(#clip0_20_43)">
<path d="M1440 -2.76273V121.559C1353.04 129.415 1266.08 137.27 1183 133.439C1099.92 129.608 1020.71 114.091 951 110.232C881.287 106.374 821.067 114.174 750 117.139C678.933 120.104 597.021 118.235 513 120.73C428.979 123.226 342.851 130.087 257 130.953C171.149 131.818 85.5743 126.689 0 121.559V-2.76273L1440 -2.76273Z" fill="black" fill-opacity="0.2"/>
<path d="M1440 -2.76271V80.1186C1358.98 71.5882 1277.96 63.0578 1207 68.5153C1136.04 73.9727 1075.13 93.4179 983 92.5508C890.874 91.6838 767.533 70.5044 680 66.0288C592.467 61.5532 540.741 73.7814 475 80.3949C409.259 87.0084 329.503 88.0072 248 87.0254C166.497 86.0436 83.2488 83.0811 0 80.1186V-2.76271L1440 -2.76271Z" fill="black" fill-opacity="0.5"/>
<path d="M1440 -2.76271V38.678C1369.87 29.5405 1299.75 20.403 1226 24.0356C1152.25 27.6682 1074.88 44.0709 996 45.3085C917.12 46.546 836.733 32.6184 753 29.8373C669.267 27.0562 582.187 35.4215 499 39.5068C415.813 43.5921 336.518 43.3972 254 42.5458C171.482 41.6943 85.741 40.1861 0 38.678V-2.76271L1440 -2.76271Z" fill="black"/>
</g>
<defs>
<clipPath id="clip0_20_43">
<rect width="1440" height="163" fill="white" transform="matrix(-1 0 0 -1 1440 163)"/>
</clipPath>
</defs>
</svg>
